<?xml version="1.0" standalone="no"?>
<!DOCTYPE svg PUBLIC "-//W3C//DTD SVG 20010904//EN"
        "http://www.w3.org/TR/2001/REC-SVG-20010904/DTD/svg10.dtd">
<svg version="1.0" xmlns="http://www.w3.org/2000/svg"
     width="2000.000000pt" height="1333.000000pt" viewBox="0 0 2000.000000 1333.000000"
     preserveAspectRatio="xMidYMid meet">
    <metadata>
        Created by potrace 1.15, written by Peter Selinger 2001-2017
    </metadata>
    <g transform="translate(0.000000,1333.000000) scale(0.100000,-0.100000)"
       fill="#000000" stroke="none">
        <path d="M0 6665 l0 -6665 10000 0 10000 0 0 6665 0 6665 -10000 0 -10000 0 0
-6665z m10380 2838 c205 -632 406 -1250 447 -1375 l74 -228 1452 -2 1452 -3
-1170 -848 c-643 -467 -1171 -852 -1173 -856 -1 -4 198 -623 443 -1375 245
-753 443 -1371 441 -1373 -2 -2 -529 376 -1170 841 -641 465 -1170 846 -1176
846 -5 0 -534 -381 -1175 -846 -642 -465 -1169 -843 -1171 -841 -3 2 197 622
442 1376 251 772 443 1376 438 1380 -5 5 -533 388 -1174 852 l-1165 844 1452
3 1452 2 74 228 c407 1258 822 2522 827 2522 3 0 174 -516 380 -1147z"/>
    </g>
</svg>
